<svg width="60" height="54" viewBox="0 0 60 54" fill="none" xmlns="http://www.w3.org/2000/svg">
<path d="M54.375 26.6875H45V19.0625C45 14.8568 48.3633 11.4375 52.5 11.4375H53.4375C54.9961 11.4375 56.25 10.1627 56.25 8.57812V2.85938C56.25 1.2748 54.9961 0 53.4375 0H52.5C42.1406 0 33.75 8.53047 33.75 19.0625V47.6562C33.75 50.8135 36.2695 53.375 39.375 53.375H54.375C57.4805 53.375 60 50.8135 60 47.6562V32.4062C60 29.249 57.4805 26.6875 54.375 26.6875ZM20.625 26.6875H11.25V19.0625C11.25 14.8568 14.6133 11.4375 18.75 11.4375H19.6875C21.2461 11.4375 22.5 10.1627 22.5 8.57812V2.85938C22.5 1.2748 21.2461 0 19.6875 0H18.75C8.39062 0 0 8.53047 0 19.0625V47.6562C0 50.8135 2.51953 53.375 5.625 53.375H20.625C23.7305 53.375 26.25 50.8135 26.25 47.6562V32.4062C26.25 29.249 23.7305 26.6875 20.625 26.6875Z" fill="#0C2239"/>
</svg>
