<svg width="97" height="97" viewBox="0 0 97 97" fill="none" xmlns="http://www.w3.org/2000/svg">
<circle cx="48.5" cy="48.5" r="48.5" fill="#4DC6F3"/>
<path d="M24.89 43.398H20.804V54H18.338V43.398H14.252V41.22H24.89V43.398ZM28.8411 54.18C27.8211 54.18 26.9391 53.958 26.1951 53.514C25.4631 53.07 24.8931 52.482 24.4851 51.75C24.0771 51.006 23.8731 50.202 23.8731 49.338C23.8731 48.45 24.0711 47.634 24.4671 46.89C24.8751 46.134 25.4511 45.534 26.1951 45.09C26.9391 44.634 27.8271 44.406 28.8591 44.406C29.8911 44.406 30.7731 44.634 31.5051 45.09C32.2371 45.534 32.7951 46.128 33.1791 46.872C33.5751 47.604 33.7731 48.396 33.7731 49.248C33.7731 49.56 33.7551 49.83 33.7191 50.058H26.4291C26.4891 50.79 26.7591 51.366 27.2391 51.786C27.7311 52.206 28.2951 52.416 28.9311 52.416C29.4111 52.416 29.8611 52.302 30.2811 52.074C30.7131 51.834 31.0071 51.522 31.1631 51.138L33.2331 51.714C32.8851 52.434 32.3271 53.028 31.5591 53.496C30.7911 53.952 29.8851 54.18 28.8411 54.18ZM26.3751 48.528H31.3071C31.2351 47.82 30.9651 47.25 30.4971 46.818C30.0411 46.374 29.4831 46.152 28.8231 46.152C28.1751 46.152 27.6171 46.374 27.1491 46.818C26.6931 47.25 26.4351 47.82 26.3751 48.528ZM49.8945 54H47.4825V48.708C47.4825 47.964 47.3505 47.418 47.0865 47.07C46.8345 46.71 46.4805 46.53 46.0245 46.53C45.5445 46.53 45.0945 46.716 44.6745 47.088C44.2545 47.448 43.9545 47.922 43.7745 48.51V54H41.3625V48.708C41.3625 47.952 41.2305 47.4 40.9665 47.052C40.7145 46.704 40.3605 46.53 39.9045 46.53C39.4365 46.53 38.9865 46.71 38.5545 47.07C38.1345 47.43 37.8345 47.904 37.6545 48.492V54H35.2425V44.568H37.4205V46.314C37.7685 45.702 38.2425 45.234 38.8425 44.91C39.4545 44.574 40.1505 44.406 40.9305 44.406C41.7105 44.406 42.3165 44.598 42.7485 44.982C43.1925 45.366 43.4745 45.84 43.5945 46.404C43.9665 45.756 44.4525 45.264 45.0525 44.928C45.6525 44.58 46.3245 44.406 47.0685 44.406C47.6565 44.406 48.1305 44.514 48.4905 44.73C48.8625 44.934 49.1505 45.216 49.3545 45.576C49.5585 45.924 49.6965 46.32 49.7685 46.764C49.8525 47.208 49.8945 47.658 49.8945 48.114V54ZM57.6465 54.18C56.9025 54.18 56.2545 54.012 55.7025 53.676C55.1505 53.34 54.7185 52.896 54.4065 52.344V57.834H51.9945V44.568H54.1005V46.188C54.4485 45.636 54.8985 45.204 55.4505 44.892C56.0145 44.568 56.6505 44.406 57.3585 44.406C58.2105 44.406 58.9665 44.628 59.6265 45.072C60.2865 45.504 60.8085 46.092 61.1925 46.836C61.5765 47.568 61.7685 48.378 61.7685 49.266C61.7685 50.19 61.5885 51.024 61.2285 51.768C60.8805 52.5 60.3945 53.088 59.7705 53.532C59.1585 53.964 58.4505 54.18 57.6465 54.18ZM56.8365 52.128C57.3285 52.128 57.7545 51.996 58.1145 51.732C58.4865 51.456 58.7745 51.102 58.9785 50.67C59.1945 50.226 59.3025 49.758 59.3025 49.266C59.3025 48.738 59.1885 48.264 58.9605 47.844C58.7325 47.412 58.4205 47.076 58.0245 46.836C57.6405 46.584 57.1965 46.458 56.6925 46.458C56.2365 46.458 55.7805 46.608 55.3245 46.908C54.8685 47.208 54.5625 47.586 54.4065 48.042V50.256C54.6225 50.784 54.9525 51.228 55.3965 51.588C55.8405 51.948 56.3205 52.128 56.8365 52.128ZM63.3847 40.86H65.7967V50.976C65.7967 51.42 65.8687 51.714 66.0127 51.858C66.1567 52.002 66.3547 52.074 66.6067 52.074C66.7987 52.074 66.9967 52.05 67.2007 52.002C67.4047 51.954 67.5847 51.894 67.7407 51.822L68.0647 53.658C67.7407 53.814 67.3627 53.934 66.9307 54.018C66.4987 54.102 66.1087 54.144 65.7607 54.144C65.0047 54.144 64.4167 53.946 63.9967 53.55C63.5887 53.142 63.3847 52.566 63.3847 51.822V40.86ZM73.4896 54.18C72.4696 54.18 71.5876 53.958 70.8436 53.514C70.1116 53.07 69.5416 52.482 69.1336 51.75C68.7256 51.006 68.5216 50.202 68.5216 49.338C68.5216 48.45 68.7196 47.634 69.1156 46.89C69.5236 46.134 70.0996 45.534 70.8436 45.09C71.5876 44.634 72.4756 44.406 73.5076 44.406C74.5396 44.406 75.4216 44.634 76.1536 45.09C76.8856 45.534 77.4436 46.128 77.8276 46.872C78.2236 47.604 78.4216 48.396 78.4216 49.248C78.4216 49.56 78.4036 49.83 78.3676 50.058H71.0776C71.1376 50.79 71.4076 51.366 71.8876 51.786C72.3796 52.206 72.9436 52.416 73.5796 52.416C74.0596 52.416 74.5096 52.302 74.9296 52.074C75.3616 51.834 75.6556 51.522 75.8116 51.138L77.8816 51.714C77.5336 52.434 76.9756 53.028 76.2076 53.496C75.4396 53.952 74.5336 54.18 73.4896 54.18ZM71.0236 48.528H75.9556C75.8836 47.82 75.6136 47.25 75.1456 46.818C74.6896 46.374 74.1316 46.152 73.4716 46.152C72.8236 46.152 72.2656 46.374 71.7976 46.818C71.3416 47.25 71.0836 47.82 71.0236 48.528Z" fill="white"/>
</svg>
